<svg width="24" height="25" viewBox="0 0 24 25" fill="none" xmlns="http://www.w3.org/2000/svg">
<path d="M3.10039 12.9456L3.10038 12.9449C3.04543 4.99472 12.7205 0.952843 18.325 6.58692C23.8699 12.2134 19.8664 21.7667 11.9574 21.7597H11.9573C10.556 21.7597 9.21891 21.4455 7.98245 20.8259C6.74827 20.2073 5.25518 20.4573 4.26698 21.4455L4.12946 21.583C4.01412 21.6984 3.85989 21.7597 3.70291 21.7597C3.62523 21.7597 3.54693 21.7447 3.47227 21.7137C3.24693 21.6204 3.1 21.4005 3.1 21.1566L3.10039 12.9456ZM8.52284 19.7476C9.59211 20.2835 10.7511 20.5547 11.9652 20.5536C18.7737 20.5635 22.2641 12.2473 17.4677 7.43529L17.4676 7.4352C12.6035 2.56748 4.27119 6.05421 4.30645 12.9359L4.30647 12.9396L4.30648 12.9422L4.30617 19.729L4.30616 19.8967L4.45373 19.8169C5.10531 19.4646 5.83011 19.2828 6.55978 19.2828C7.22728 19.2828 7.89874 19.4348 8.52284 19.7476ZM9.78987 12.8607C9.78987 13.2901 9.44224 13.6384 9.01302 13.6395C7.9781 13.5965 7.97825 12.1247 9.01302 12.0818C9.44224 12.0829 9.78987 12.4312 9.78987 12.8607ZM11.2554 12.8587C11.2564 12.4295 11.6047 12.0818 12.0342 12.0818C12.4636 12.0818 12.8119 12.4295 12.813 12.8587C12.7701 13.8935 11.2984 13.8936 11.2554 12.8587ZM15.8361 12.8587C15.7932 13.8935 14.3215 13.8936 14.2785 12.8587C14.2795 12.4295 14.6278 12.0818 15.0573 12.0818C15.4867 12.0818 15.835 12.4295 15.8361 12.8587Z" fill="black" stroke="black" stroke-width="0.2"/>
</svg>
