<svg width="24" height="20" viewBox="0 0 24 20" fill="none" xmlns="http://www.w3.org/2000/svg">
<rect x="0.5" y="0.5" width="23" height="19" rx="9.5" fill="#CC0200" stroke="white"/>
<path d="M8.20581 14V6.524L6.62181 7.016L6.39381 6.248L8.44581 5.54H9.14181V14H8.20581ZM11.3346 14V13.268L14.3826 10.58C15.0386 10.004 15.4946 9.524 15.7506 9.14C16.0066 8.756 16.1346 8.356 16.1346 7.94C16.1346 7.46 15.9706 7.072 15.6426 6.776C15.3146 6.48 14.9146 6.332 14.4426 6.332C13.9866 6.332 13.5826 6.448 13.2306 6.68C12.8866 6.912 12.5386 7.276 12.1866 7.772L11.4906 7.268C11.8986 6.66 12.3306 6.212 12.7866 5.924C13.2426 5.628 13.8186 5.48 14.5146 5.48C15.2666 5.48 15.8866 5.708 16.3746 6.164C16.8706 6.612 17.1186 7.184 17.1186 7.88C17.1186 8.456 16.9626 8.968 16.6506 9.416C16.3386 9.864 15.7866 10.44 14.9946 11.144L12.7506 13.136H17.2026V14H11.3346Z" fill="white"/>
</svg>
