<svg width="24" height="25" viewBox="0 0 24 25" fill="none" xmlns="http://www.w3.org/2000/svg">
<path d="M11.866 7.48385L12 7.75023L12.134 7.48385C13.0568 5.6494 14.5995 4.68711 16.6094 4.68711C18.0495 4.68711 19.3652 5.2208 20.3179 6.18555C21.3171 7.19746 21.85 8.58644 21.85 10.2119C21.85 12.139 20.623 14.2914 18.1385 16.6103C15.8893 18.7097 13.4219 20.1846 12.9515 20.4581L13.027 20.5878L12.9515 20.4581C12.8531 20.5154 12.6941 20.6073 12.5597 20.6851L12.3872 20.7847L12.3347 20.8149L12.3205 20.8232L12.3168 20.8253L12.3158 20.8259L12.3156 20.826L12.3155 20.826L12.3155 20.8261L12.3905 20.956L12.3155 20.8261L12.0001 21.0081L11.6847 20.8262L11.6097 20.9561L11.6847 20.8261L11.6846 20.8261L11.6846 20.8261L11.6843 20.826L11.6834 20.8254L11.6797 20.8233L11.6654 20.815L11.6129 20.7848L11.4403 20.6851C11.3057 20.6074 11.1467 20.5155 11.0482 20.4582C10.5778 20.1847 8.11058 18.7099 5.86126 16.6103C3.37695 14.2914 2.15 12.139 2.15 10.2119C2.15 8.58644 2.68294 7.19746 3.68212 6.18559C4.63483 5.2208 5.95051 4.68711 7.39062 4.68711C9.40055 4.68711 10.9432 5.6494 11.866 7.48385ZM12.3169 19.3667L12.3169 19.3667C12.769 19.1039 15.1259 17.6952 17.2771 15.6873C19.4169 13.6901 20.5875 11.7965 20.5875 10.2119C20.5875 8.96857 20.183 7.90235 19.4785 7.14557C18.7732 6.388 17.7756 5.94961 16.6094 5.94961C15.8554 5.94961 15.1913 6.12569 14.6268 6.48087C14.0626 6.83591 13.6066 7.3644 13.2596 8.05576C12.8281 8.91548 12.6855 9.79341 12.6446 10.1273H11.3554C11.314 9.78773 11.1685 8.89063 10.7205 8.0166C10.3684 7.32949 9.91894 6.81038 9.3611 6.46389C8.80305 6.11727 8.14654 5.94961 7.39062 5.94961C6.22436 5.94961 5.22677 6.388 4.52154 7.14557C3.81705 7.90235 3.4125 8.96857 3.4125 10.2119C3.4125 11.7965 4.58304 13.6901 6.72273 15.6873L6.82508 15.5777C8.96414 17.5743 11.3097 18.9763 11.7582 19.2371L11.6827 19.3667C11.6828 19.3667 11.6828 19.3667 11.6828 19.3667C11.7461 19.4036 11.8344 19.4547 11.9248 19.507L11.9999 19.5504L12.075 19.5069L12.3169 19.3667Z" fill="black" stroke="black" stroke-width="0.3"/>
</svg>
