<svg width="188" height="41" viewBox="0 0 188 41" fill="none" xmlns="http://www.w3.org/2000/svg">
<path fill-rule="evenodd" clip-rule="evenodd" d="M187.999 40.2927H0V6.3658C0 2.86455 2.88973 0 6.42175 0H188V40.2927H187.999Z" fill="#CC0000"/>
<path d="M126.705 24.3345V17.4023H128.014L130.142 20.6801L132.27 17.4023H133.578V24.3345H132.35V19.3633L130.142 22.6316H130.102L127.914 19.3828V24.3345H126.705Z" fill="#FEFEFE"/>
<path d="M135.677 24.3353L138.754 17.3535H139.893L142.97 24.3353H141.672L140.962 22.6613H137.655L136.935 24.3353H135.677ZM138.105 21.5819H140.512L139.304 18.809L138.105 21.5819Z" fill="#FEFEFE"/>
<path d="M153.189 24.3345V17.4023H154.418V20.8885L157.745 17.4023H159.253L156.346 20.3831L159.383 24.3345H157.895L155.507 21.215L154.418 22.3246V24.3345H153.189Z" fill="#FEFEFE"/>
<path d="M161.331 24.3345V17.4023H166.516V18.4918H162.56V20.2939H166.067V21.3833H162.56V23.2451H166.566V24.3345H161.331Z" fill="#FEFEFE"/>
<path d="M170.642 24.3345V18.5313H168.425V17.4023H174.099V18.5313H171.881V24.3345H170.642Z" fill="#FEFEFE"/>
<path d="M145.068 24.3345V17.4023H148.185C148.998 17.4023 149.634 17.602 150.093 18.0014C150.553 18.4007 150.783 18.937 150.783 19.6107C150.783 20.1589 150.633 20.6091 150.333 20.9626C150.033 21.3161 149.627 21.5648 149.114 21.7105L151.002 24.3351H149.554L147.816 21.9189H146.297V24.3351H145.068V24.3345ZM146.297 20.8389H148.096C148.535 20.8389 148.885 20.7334 149.145 20.5218C149.404 20.3108 149.534 20.0233 149.534 19.6603C149.534 19.2905 149.407 19.0067 149.155 18.8089C148.901 18.6111 148.545 18.5119 148.085 18.5119H146.297V20.8389Z" fill="#FEFEFE"/>
<path d="M21.436 23.0502C21.436 24.9804 22.6262 25.9455 25.0073 25.9455H30.0798V20.1555H25.0073C22.6306 20.1555 21.436 21.1206 21.436 23.0508V23.0502ZM30.0798 18.0219C30.0798 16.5594 29.6915 15.4826 28.9155 14.7919C28.139 14.1012 27.0089 13.7558 25.7667 13.7558C25.2866 13.7558 24.6576 13.7564 24.033 13.8293C23.4458 13.8977 22.8612 14.0346 22.4298 14.1671C21.5398 14.4415 20.7424 14.812 20.0386 15.2791L18.9516 13.4506C19.4071 13.1461 19.9094 12.8817 20.4579 12.6582C21.0065 12.4347 21.5709 12.2469 22.1505 12.0943C22.7301 11.9418 23.3046 11.825 23.874 11.744C24.4435 11.663 25.5805 11.6221 26.0771 11.6221C27.4023 11.6221 28.6926 11.7747 29.7073 12.0793C30.7215 12.3838 31.581 12.8208 32.2848 13.3897C32.9885 13.9586 33.5219 14.6343 33.8842 15.416C34.2465 16.1984 34.4277 17.0693 34.4277 18.0212V28.0773H25.0079C22.1961 28.0773 20.1165 27.661 18.7812 26.8277C17.446 25.9945 16.7783 24.7355 16.7783 23.049C16.7783 21.363 17.446 20.1034 18.7812 19.2702C20.1165 18.4369 22.1923 18.0206 25.0079 18.0206H30.0804L30.0798 18.0219ZM42.3633 28.0779H38.0155C38.0155 21.336 38.0155 14.5941 38.0155 7.85215C38.0142 5.00644 39.682 3.78075 42.3633 3.50195V28.0779ZM50.3066 14.3649V25.9449H54.9034C55.6072 25.9449 56.2546 25.8381 56.8443 25.6247C57.434 25.4112 57.9414 25.0715 58.3658 24.6037C58.7902 24.1365 59.1215 23.5368 59.3597 22.8059C59.5978 22.0744 59.7169 21.1909 59.7169 20.1549C59.7169 19.1188 59.5978 18.2354 59.3597 17.5038C59.1215 16.7729 58.7902 16.1733 58.3658 15.7061C57.9414 15.2389 57.434 14.8986 56.8443 14.6851C56.2546 14.4716 55.604 14.3649 54.9034 14.3649H50.3066ZM54.9034 12.2319C56.3318 12.2319 57.631 12.4146 58.801 12.7807C59.9703 13.1461 60.9698 13.6748 61.7977 14.3649C62.6256 15.0556 63.2629 15.8888 63.7075 16.864C64.1528 17.8391 64.3752 18.9361 64.3752 20.1549C64.3752 21.3737 64.1522 22.4706 63.7075 23.4458C63.2622 24.4209 62.6256 25.2542 61.7977 25.9449C60.9698 26.6356 59.9709 27.1643 58.801 27.5298C57.6316 27.8952 56.3293 28.0785 54.9034 28.0785H50.3066L50.3351 36.7501H45.9879L45.9594 12.2319H54.9041H54.9034ZM72.2652 28.0779H67.918V12.1835H72.2652V28.0779ZM94.4601 28.1112H90.1129V18.5116C90.1129 17.0492 89.7398 15.9975 88.9949 15.3576C88.2493 14.7178 85.9626 14.4082 84.557 14.3975L80.1952 14.3643V28.0773H75.8473V12.2312L84.557 12.2645C87.5177 12.2758 90.9148 12.7876 92.3331 13.8337C93.7507 14.8798 94.4601 16.4414 94.4601 18.511V28.1106V28.1112ZM102.647 22.8901C102.647 24.8429 103.839 25.8193 106.224 25.8193H111.304V19.9615H106.224C103.844 19.9615 102.647 20.9379 102.647 22.8907V22.8901ZM111.304 17.8027C111.304 16.3227 110.915 15.2333 110.138 14.5344C109.361 13.8355 108.229 13.4864 106.985 13.4864C106.504 13.4864 105.874 13.4871 105.248 13.5605C104.66 13.6296 104.074 13.7684 103.643 13.9027C102.752 14.1796 101.953 14.5551 101.248 15.028L100.159 13.1781C100.615 12.8698 101.118 12.6023 101.667 12.3763C102.217 12.1502 102.782 11.96 103.362 11.8055C103.943 11.6517 104.518 11.533 105.089 11.4507C105.659 11.3685 106.798 11.3277 107.295 11.3277C108.622 11.3277 109.915 11.4821 110.931 11.7904C111.946 12.0987 112.808 12.5408 113.512 13.116C114.216 13.6911 114.751 14.3749 115.114 15.1661C115.477 15.9573 115.658 16.8395 115.658 17.8021V27.9762H106.224C103.408 27.9762 101.325 27.5549 99.9875 26.7122C98.6503 25.8695 97.9814 24.5949 97.9814 22.8888C97.9814 21.1828 98.6503 19.9081 99.9875 19.0655C101.325 18.2228 103.404 17.8015 106.224 17.8015H111.304L111.304 17.8027Z" fill="#FEFEFE"/>
</svg>
