<svg width="24" height="25" viewBox="0 0 24 25" fill="none" xmlns="http://www.w3.org/2000/svg">
<path d="M19.4402 21.1075L18.3448 8.90959C18.315 8.57648 18.0358 8.32132 17.7014 8.32132H15.4426V7.30259C15.4426 5.404 13.8981 3.85938 11.9996 3.85938C10.1011 3.85938 8.55677 5.404 8.55677 7.30259V8.32132H6.29647C5.96206 8.32132 5.68287 8.57648 5.65298 8.90959L4.55336 21.1555C4.53717 21.3362 4.59764 21.5153 4.72005 21.6492C4.84246 21.7831 5.01552 21.8593 5.19685 21.8593H18.8011C18.8016 21.8593 18.8023 21.8593 18.8028 21.8593C19.1597 21.8593 19.4489 21.57 19.4489 21.2132C19.4488 21.1773 19.4458 21.1419 19.4402 21.1075ZM9.84892 7.30259C9.84892 6.11649 10.8137 5.15152 11.9996 5.15152C13.1857 5.15152 14.1505 6.11649 14.1505 7.30259V8.32132H9.84892V7.30259ZM5.90357 20.5672L6.88715 9.61346H8.55677V10.7688C8.55677 11.1256 8.84595 11.4149 9.20284 11.4149C9.55973 11.4149 9.84892 11.1256 9.84892 10.7688V9.61346H14.1505V10.7688C14.1505 11.1256 14.4397 11.4149 14.7966 11.4149C15.1535 11.4149 15.4427 11.1256 15.4427 10.7688V9.61346H17.1108L18.0943 20.5672H5.90357Z" fill="black"/>
</svg>
