<svg width="24" height="24" viewBox="0 0 24 24" fill="none" xmlns="http://www.w3.org/2000/svg">
<rect width="24" height="24" fill="#F6F6F6"/>
<mask id="path-1-inside-1_10759_31767" fill="white">
<path fill-rule="evenodd" clip-rule="evenodd" d="M15.4679 13.9709H14.6756L14.4001 13.6975C15.3731 12.5629 15.9648 11.092 15.9648 9.48035C15.9648 5.8979 13.061 2.99402 9.47852 2.99402C5.89607 2.99402 2.99219 5.8979 2.99219 9.48035C2.99219 13.0628 5.89607 15.9667 9.47852 15.9667C11.0901 15.9667 12.56 15.3759 13.6946 14.404L13.9701 14.6774V15.4677L18.9575 20.4482L20.4454 18.9604L15.4679 13.9709ZM9.47878 13.9712C6.99801 13.9712 4.98824 11.9615 4.98824 9.48069C4.98824 7.00091 6.99801 4.99015 9.47878 4.99015C11.9586 4.99015 13.9693 7.00091 13.9693 9.48069C13.9693 11.9615 11.9586 13.9712 9.47878 13.9712Z"/>
</mask>
<path fill-rule="evenodd" clip-rule="evenodd" d="M15.4679 13.9709H14.6756L14.4001 13.6975C15.3731 12.5629 15.9648 11.092 15.9648 9.48035C15.9648 5.8979 13.061 2.99402 9.47852 2.99402C5.89607 2.99402 2.99219 5.8979 2.99219 9.48035C2.99219 13.0628 5.89607 15.9667 9.47852 15.9667C11.0901 15.9667 12.56 15.3759 13.6946 14.404L13.9701 14.6774V15.4677L18.9575 20.4482L20.4454 18.9604L15.4679 13.9709ZM9.47878 13.9712C6.99801 13.9712 4.98824 11.9615 4.98824 9.48069C4.98824 7.00091 6.99801 4.99015 9.47878 4.99015C11.9586 4.99015 13.9693 7.00091 13.9693 9.48069C13.9693 11.9615 11.9586 13.9712 9.47878 13.9712Z" fill="black" fill-opacity="0.38"/>
<path d="M14.6756 13.9709V14.2709H14.5519L14.4642 14.1838L14.6756 13.9709ZM14.4001 13.6975L14.1888 13.9104L13.9909 13.7139L14.1724 13.5022L14.4001 13.6975ZM13.6946 14.404L13.4995 14.1761L13.7096 13.9961L13.906 14.1911L13.6946 14.404ZM13.9701 14.6774L14.1814 14.4645L14.2701 14.5525V14.6774H13.9701ZM13.9701 15.4677L13.7581 15.68L13.6701 15.5921V15.4677H13.9701ZM18.9575 20.4482L19.1697 20.6604L18.9577 20.8724L18.7456 20.6605L18.9575 20.4482ZM20.4454 18.9604L20.6578 18.7485L20.8694 18.9606L20.6575 19.1725L20.4454 18.9604ZM15.4679 14.2709H14.6756V13.6709H15.4679V14.2709ZM14.4642 14.1838L14.1888 13.9104L14.6115 13.4846L14.8869 13.758L14.4642 14.1838ZM14.1724 13.5022C15.101 12.4193 15.6648 11.017 15.6648 9.48035H16.2648C16.2648 11.167 15.6452 12.7064 14.6279 13.8928L14.1724 13.5022ZM15.6648 9.48035C15.6648 6.06359 12.8953 3.29402 9.47852 3.29402V2.69402C13.2267 2.69402 16.2648 5.73222 16.2648 9.48035H15.6648ZM9.47852 3.29402C6.06175 3.29402 3.29219 6.06359 3.29219 9.48035H2.69219C2.69219 5.73222 5.73038 2.69402 9.47852 2.69402V3.29402ZM3.29219 9.48035C3.29219 12.8971 6.06175 15.6667 9.47852 15.6667V16.2667C5.73038 16.2667 2.69219 13.2285 2.69219 9.48035H3.29219ZM9.47852 15.6667C11.0152 15.6667 12.4166 15.1037 13.4995 14.1761L13.8898 14.6318C12.7034 15.6481 11.165 16.2667 9.47852 16.2667V15.6667ZM13.906 14.1911L14.1814 14.4645L13.7587 14.8903L13.4833 14.6169L13.906 14.1911ZM14.2701 14.6774V15.4677H13.6701V14.6774H14.2701ZM14.182 15.2555L19.1695 20.236L18.7456 20.6605L13.7581 15.68L14.182 15.2555ZM18.7454 20.2361L20.2333 18.7482L20.6575 19.1725L19.1697 20.6604L18.7454 20.2361ZM20.233 19.1723L15.2555 14.1828L15.6803 13.759L20.6578 18.7485L20.233 19.1723ZM9.47878 14.2712C6.83232 14.2712 4.68824 12.1271 4.68824 9.48069H5.28824C5.28824 11.7958 7.16369 13.6712 9.47878 13.6712V14.2712ZM4.68824 9.48069C4.68824 6.83527 6.83228 4.69015 9.47878 4.69015V5.29015C7.16373 5.29015 5.28824 7.16655 5.28824 9.48069H4.68824ZM9.47878 4.69015C12.1242 4.69015 14.2693 6.83523 14.2693 9.48069H13.6693C13.6693 7.1666 11.7929 5.29015 9.47878 5.29015V4.69015ZM14.2693 9.48069C14.2693 12.1272 12.1242 14.2712 9.47878 14.2712V13.6712C11.7929 13.6712 13.6693 11.7957 13.6693 9.48069H14.2693Z" fill="#F6F6F6" mask="url(#path-1-inside-1_10759_31767)"/>
</svg>
